<?xml version="1.0" standalone="no"?>
<!DOCTYPE svg PUBLIC "-//W3C//DTD SVG 20010904//EN"
 "http://www.w3.org/TR/2001/REC-SVG-20010904/DTD/svg10.dtd">
<svg version="1.0" xmlns="http://www.w3.org/2000/svg"
 width="959.000000pt" height="277.000000pt" viewBox="0 0 959.000000 277.000000"
 preserveAspectRatio="xMidYMid meet">

<g transform="translate(0.000000,277.000000) scale(0.100000,-0.100000)"
fill="#000000" stroke="none">
<path d="M370 2389 c0 -5 5 -7 10 -4 6 3 10 8 10 11 0 2 -4 4 -10 4 -5 0 -10
-5 -10 -11z"/>
<path d="M1170 2389 c0 -5 5 -7 10 -4 6 3 10 8 10 11 0 2 -4 4 -10 4 -5 0 -10
-5 -10 -11z"/>
<path d="M1970 2389 c0 -5 5 -7 10 -4 6 3 10 8 10 11 0 2 -4 4 -10 4 -5 0 -10
-5 -10 -11z"/>
<path d="M2770 2389 c0 -5 5 -7 10 -4 6 3 10 8 10 11 0 2 -4 4 -10 4 -5 0 -10
-5 -10 -11z"/>
<path d="M3570 2389 c0 -5 5 -7 10 -4 6 3 10 8 10 11 0 2 -4 4 -10 4 -5 0 -10
-5 -10 -11z"/>
<path d="M4370 2389 c0 -5 5 -7 10 -4 6 3 10 8 10 11 0 2 -4 4 -10 4 -5 0 -10
-5 -10 -11z"/>
<path d="M5170 2389 c0 -5 5 -7 10 -4 6 3 10 8 10 11 0 2 -4 4 -10 4 -5 0 -10
-5 -10 -11z"/>
<path d="M5970 2389 c0 -5 5 -7 10 -4 6 3 10 8 10 11 0 2 -4 4 -10 4 -5 0 -10
-5 -10 -11z"/>
<path d="M6770 2389 c0 -5 5 -7 10 -4 6 3 10 8 10 11 0 2 -4 4 -10 4 -5 0 -10
-5 -10 -11z"/>
<path d="M7570 2389 c0 -5 5 -7 10 -4 6 3 10 8 10 11 0 2 -4 4 -10 4 -5 0 -10
-5 -10 -11z"/>
<path d="M8370 2389 c0 -5 5 -7 10 -4 6 3 10 8 10 11 0 2 -4 4 -10 4 -5 0 -10
-5 -10 -11z"/>
<path d="M9170 2389 c0 -5 5 -7 10 -4 6 3 10 8 10 11 0 2 -4 4 -10 4 -5 0 -10
-5 -10 -11z"/>
<path d="M438 1343 c-2 -527 -1 -968 1 -980 l3 -23 979 0 979 0 0 980 0 980
-980 0 -979 0 -3 -957z m232 884 c0 -1 -36 -38 -80 -82 l-80 -80 0 83 0 82 80
0 c44 0 80 -1 80 -3z m348 -74 c-125 -93 -329 -295 -423 -418 -38 -49 -72 -94
-77 -99 -4 -6 -8 65 -8 158 l0 168 135 134 135 134 170 0 171 0 -103 -77z
m737 42 c-215 -74 -455 -211 -642 -369 -87 -73 -224 -220 -303 -326 -97 -130
-202 -329 -265 -500 l-34 -95 -1 292 0 292 59 88 c150 223 334 409 575 577
l108 76 302 -1 301 0 -100 -34z m575 -90 l0 -125 -46 0 c-82 0 -254 -30 -373
-66 -160 -48 -369 -153 -502 -253 -120 -91 -277 -250 -362 -369 -156 -218
-271 -530 -293 -799 l-7 -83 -120 0 -120 0 6 93 c22 338 165 712 377 986 327
423 808 686 1335 731 50 4 93 8 98 9 4 0 7 -55 7 -124z m0 -314 l0 -120 -57
-6 c-299 -34 -538 -136 -766 -329 -69 -58 -200 -217 -257 -311 -87 -145 -160
-356 -175 -506 -12 -120 2 -109 -136 -109 l-121 0 7 63 c26 247 101 487 212
671 175 292 447 526 759 653 140 57 363 107 497 112 l37 1 0 -119z m0 -315 l0
-123 -67 -7 c-103 -10 -207 -42 -318 -96 -297 -146 -508 -432 -556 -755 l-12
-85 -119 0 -118 0 0 34 c0 107 61 329 127 461 82 163 227 336 374 445 178 132
421 224 644 243 22 2 41 4 43 5 1 1 2 -54 2 -122z m0 -316 l0 -119 -37 -6
c-78 -13 -150 -38 -228 -78 -105 -53 -234 -180 -287 -282 -40 -78 -78 -192
-78 -236 l0 -29 -125 0 -125 0 6 42 c21 145 84 327 117 336 12 3 15 7 7 12
-17 11 65 125 155 215 126 125 303 218 480 250 126 23 115 33 115 -105z m0
-318 l0 -118 -54 -17 c-129 -41 -220 -140 -262 -284 -2 -10 -36 -13 -125 -13
l-121 0 7 42 c32 186 163 361 335 446 85 41 140 59 193 61 l27 1 0 -118z m0
-312 l0 -120 -121 0 -121 0 7 28 c10 42 62 117 102 148 27 20 106 59 131 64 1
0 2 -54 2 -120z"/>
<path d="M1170 1589 c0 -5 5 -7 10 -4 6 3 10 8 10 11 0 2 -4 4 -10 4 -5 0 -10
-5 -10 -11z"/>
<path d="M1970 789 c0 -5 5 -7 10 -4 6 3 10 8 10 11 0 2 -4 4 -10 4 -5 0 -10
-5 -10 -11z"/>
<path d="M4640 2141 c0 -6 15 -13 34 -17 19 -3 45 -17 58 -31 23 -25 23 -25
26 -341 2 -174 0 -328 -3 -340 -9 -35 -53 -72 -86 -72 -16 0 -29 -4 -29 -10 0
-6 54 -10 141 -10 91 0 138 4 134 10 -3 6 -18 10 -31 10 -39 0 -81 49 -89 101
-3 24 -5 165 -3 313 l3 269 150 -348 c83 -192 155 -350 160 -352 6 -2 78 156
160 349 l150 353 3 -300 c2 -210 -1 -308 -9 -328 -12 -30 -55 -57 -88 -57 -11
0 -23 -4 -26 -10 -4 -7 63 -10 195 -10 132 0 199 3 195 10 -3 6 -15 10 -25 10
-35 0 -69 22 -85 56 -14 29 -15 78 -13 353 3 358 1 349 80 373 21 6 38 15 38
20 0 4 -55 8 -123 8 l-122 0 -134 -320 c-74 -176 -137 -317 -140 -314 -3 3
-63 146 -132 317 l-127 312 -131 3 c-81 2 -131 -1 -131 -7z"/>
<path d="M3400 1839 c-82 -14 -91 -19 -50 -33 23 -8 41 -24 53 -47 16 -31 17
-62 15 -320 -3 -311 -3 -308 -62 -334 -28 -12 -17 -13 109 -13 135 0 139 1
103 15 -25 11 -40 25 -47 46 -11 31 -15 207 -5 207 3 0 20 -10 37 -22 47 -34
147 -37 216 -8 103 45 157 145 149 274 -7 111 -57 185 -148 224 -50 20 -163
13 -217 -15 l-42 -22 -3 27 c-4 32 -22 35 -108 21z m320 -41 c55 -37 84 -107
89 -211 3 -82 1 -93 -28 -150 -36 -73 -79 -107 -135 -107 -50 0 -91 26 -113
70 -25 49 -25 287 -1 342 33 73 123 100 188 56z"/>
<path d="M3570 1589 c0 -5 5 -7 10 -4 6 3 10 8 10 11 0 2 -4 4 -10 4 -5 0 -10
-5 -10 -11z"/>
<path d="M4038 1838 c-38 -6 -68 -14 -68 -18 0 -4 15 -11 33 -16 22 -7 38 -20
50 -44 16 -32 17 -63 15 -321 -3 -311 -3 -308 -62 -334 -28 -12 -17 -13 109
-13 135 0 139 1 103 15 -25 11 -40 25 -47 46 -10 28 -16 207 -7 207 2 0 24
-11 47 -25 90 -51 228 -22 297 61 47 57 65 122 60 210 -6 89 -40 152 -107 199
-40 28 -49 30 -129 30 -68 0 -96 -5 -129 -21 l-42 -21 -3 26 c-4 31 -21 34
-120 19z m332 -40 c19 -13 45 -45 59 -73 23 -43 26 -62 26 -150 0 -114 -16
-158 -80 -213 -62 -55 -156 -37 -191 36 -21 45 -30 209 -15 287 12 65 34 103
72 122 38 20 92 16 129 -9z"/>
<path d="M4370 1589 c0 -5 5 -7 10 -4 6 3 10 8 10 11 0 2 -4 4 -10 4 -5 0 -10
-5 -10 -11z"/>
<path d="M2904 1829 c-69 -20 -95 -91 -38 -105 35 -9 51 0 74 46 25 49 59 65
106 50 21 -7 38 -22 48 -44 19 -40 21 -124 3 -147 -17 -22 -65 -46 -123 -60
-98 -24 -142 -58 -158 -121 -9 -39 16 -94 56 -118 50 -32 152 -25 203 14 37
29 38 29 54 9 23 -30 54 -43 99 -43 43 0 92 31 92 57 0 14 -2 14 -18 0 -22
-20 -67 -22 -79 -4 -4 6 -10 98 -13 204 -5 184 -6 192 -29 217 -13 14 -44 32
-69 40 -49 17 -158 20 -208 5z m201 -387 c-8 -52 -48 -100 -90 -108 -40 -8
-82 25 -91 71 -10 57 21 103 107 155 l74 46 3 -61 c2 -33 0 -79 -3 -103z"/>
<path d="M5820 1818 c-67 -34 -66 -98 1 -98 24 0 32 8 53 49 19 36 32 50 52
54 71 13 118 -39 117 -131 0 -55 -21 -92 -53 -92 -9 0 -20 -4 -25 -9 -6 -4
-42 -18 -81 -30 -117 -34 -162 -108 -119 -191 21 -41 63 -60 133 -60 49 0 67
5 103 29 l43 29 33 -29 c28 -24 43 -29 84 -29 40 0 55 5 75 25 14 14 22 30 18
36 -5 8 -10 6 -16 -5 -6 -10 -22 -16 -44 -16 -49 0 -54 21 -54 220 0 102 -4
179 -11 193 -20 44 -84 71 -179 75 -74 3 -91 0 -130 -20z m228 -296 c-8 -137
-54 -203 -129 -187 -62 14 -81 107 -33 164 20 25 145 109 163 111 2 0 2 -40
-1 -88z"/>
<path d="M6313 1831 c-53 -9 -63 -18 -30 -26 14 -4 34 -16 44 -27 16 -18 18
-40 18 -208 0 -171 -2 -190 -19 -209 -11 -12 -27 -21 -37 -21 -10 0 -21 -4
-24 -10 -4 -6 42 -10 130 -10 88 0 134 4 130 10 -3 6 -14 10 -24 10 -10 0 -26
9 -37 21 -16 18 -20 40 -22 147 -5 182 2 228 43 269 30 30 39 33 90 33 109 0
133 -59 123 -304 -5 -122 -20 -166 -58 -166 -10 0 -22 -4 -25 -10 -4 -6 42
-10 130 -10 88 0 134 4 130 10 -3 6 -15 10 -25 10 -10 0 -28 12 -39 26 -19 25
-21 40 -21 201 0 198 -6 220 -72 254 -49 25 -148 25 -204 0 -23 -10 -45 -24
-48 -30 -12 -19 -25 -12 -28 17 -3 24 -7 27 -43 28 -22 1 -59 -1 -82 -5z"/>
<path d="M7015 1829 c-35 -10 -75 -44 -75 -62 0 -28 26 -49 55 -45 23 2 35 12
51 43 54 106 174 60 174 -67 0 -65 -32 -99 -115 -122 -127 -35 -168 -65 -181
-131 -8 -42 16 -89 59 -116 49 -31 151 -23 201 14 l36 28 31 -30 c26 -26 38
-31 78 -31 52 0 101 28 101 57 0 14 -2 14 -18 0 -22 -20 -65 -22 -80 -4 -7 8
-12 86 -14 204 -3 186 -4 192 -27 217 -13 14 -44 32 -69 40 -49 17 -158 20
-207 5z m194 -406 c-19 -69 -75 -105 -129 -83 -53 22 -64 107 -20 162 10 14
46 39 79 57 33 17 64 37 68 44 13 20 15 -135 2 -180z"/>
<path d="M7575 1825 c-44 -22 -94 -83 -101 -122 -10 -53 11 -107 57 -146 l40
-35 -35 -12 c-86 -28 -89 -117 -6 -166 8 -5 63 -11 122 -14 132 -7 161 -23
166 -90 6 -75 -60 -121 -173 -121 -74 0 -123 18 -153 56 -26 33 -28 62 -6 93
18 26 69 30 82 6 7 -12 11 -13 16 -5 4 7 0 23 -8 36 -13 19 -25 25 -54 25 -73
0 -112 -80 -74 -149 28 -52 81 -75 182 -80 158 -6 242 33 271 127 11 38 10 48
-7 89 -28 69 -78 92 -214 99 -128 6 -146 10 -153 28 -12 30 17 46 110 60 113
17 158 42 185 104 23 50 18 97 -13 148 -14 23 -16 33 -7 42 19 19 46 14 70
-13 24 -28 50 -32 67 -11 14 17 5 43 -20 56 -28 15 -81 12 -113 -8 -29 -17
-31 -17 -65 0 -43 22 -125 23 -166 3z m137 -27 c42 -48 47 -168 11 -231 -21
-36 -55 -48 -96 -34 -27 9 -54 43 -43 54 3 3 -2 12 -11 21 -20 20 -14 112 11
164 28 58 90 71 128 26z"/>
<path d="M8132 1827 c-52 -16 -128 -90 -149 -145 -27 -71 -24 -174 9 -237 32
-61 59 -87 118 -114 57 -26 171 -28 231 -5 40 17 99 82 99 111 0 23 -15 14
-34 -21 -38 -71 -153 -87 -237 -32 -52 35 -89 113 -97 202 l-5 64 183 0 183 0
-6 36 c-9 55 -50 109 -99 133 -49 23 -138 27 -196 8z m146 -23 c27 -17 52 -71
52 -109 l0 -25 -125 0 c-142 0 -141 0 -105 76 38 78 110 102 178 58z"/>
<path d="M8557 1831 c-42 -7 -50 -23 -15 -31 41 -10 48 -43 48 -227 0 -191 -7
-221 -52 -230 -68 -14 -29 -23 96 -23 75 0 136 2 136 6 0 3 -14 10 -30 16 -17
5 -35 18 -40 28 -13 25 -14 309 0 358 13 49 53 85 84 76 12 -3 32 -17 47 -30
39 -37 89 -27 89 17 0 65 -157 64 -214 0 -22 -24 -36 -14 -36 27 0 19 -5 22
-37 21 -21 -1 -55 -5 -76 -8z"/>
<path d="M370 1589 c0 -5 5 -7 10 -4 6 3 10 8 10 11 0 2 -4 4 -10 4 -5 0 -10
-5 -10 -11z"/>
<path d="M2770 1589 c0 -5 5 -7 10 -4 6 3 10 8 10 11 0 2 -4 4 -10 4 -5 0 -10
-5 -10 -11z"/>
<path d="M5170 1589 c0 -5 5 -7 10 -4 6 3 10 8 10 11 0 2 -4 4 -10 4 -5 0 -10
-5 -10 -11z"/>
<path d="M8370 1589 c0 -5 5 -7 10 -4 6 3 10 8 10 11 0 2 -4 4 -10 4 -5 0 -10
-5 -10 -11z"/>
<path d="M9170 1589 c0 -5 5 -7 10 -4 6 3 10 8 10 11 0 2 -4 4 -10 4 -5 0 -10
-5 -10 -11z"/>
<path d="M7035 965 c-58 -21 -85 -56 -85 -111 0 -57 35 -96 145 -161 70 -42
80 -52 83 -80 2 -23 -3 -35 -20 -47 -28 -20 -98 -21 -145 -1 -42 18 -76 11
-71 -13 2 -9 23 -28 48 -42 36 -20 59 -25 110 -24 119 0 188 62 178 158 -7 60
-45 101 -138 150 -36 19 -74 44 -85 55 -17 20 -17 22 0 41 22 25 65 26 134 3
87 -28 95 14 11 57 -52 26 -118 33 -165 15z"/>
<path d="M6151 957 c-35 -17 -43 -62 -39 -217 3 -121 5 -139 27 -177 26 -45
86 -83 132 -83 42 0 111 42 131 80 22 42 24 130 4 168 -32 61 -79 86 -159 83
l-48 -1 2 77 c2 85 -4 94 -50 70z m153 -220 c23 -17 36 -78 25 -124 -21 -94
-111 -81 -124 18 -11 85 45 145 99 106z"/>
<path d="M7892 958 c-30 -30 -3 -83 39 -76 29 4 43 29 35 61 -5 21 -12 27 -34
27 -15 0 -33 -5 -40 -12z"/>
<path d="M8620 957 c-35 -18 -42 -65 -38 -260 3 -163 4 -169 27 -188 13 -10
33 -19 45 -19 20 0 21 4 21 109 0 93 3 112 19 130 24 26 58 27 81 1 14 -15 19
-42 23 -115 5 -104 17 -125 70 -125 l24 0 -4 119 c-6 167 -32 202 -152 202
l-66 0 0 80 c0 85 -4 89 -50 66z"/>
<path d="M8064 899 c-17 -19 -19 -37 -19 -163 1 -108 5 -150 17 -178 19 -41
69 -78 108 -78 34 0 70 26 70 51 0 15 -7 19 -33 19 -52 0 -69 27 -75 115 -5
74 -4 75 19 75 36 0 69 27 69 56 0 24 -3 25 -42 23 l-43 -3 0 52 c0 49 -1 52
-26 52 -14 0 -34 -9 -45 -21z"/>
<path d="M8383 809 c-50 -10 -83 -36 -104 -82 -47 -104 6 -219 112 -242 35 -8
100 10 131 34 21 18 22 21 6 37 -14 14 -22 15 -49 5 -80 -28 -129 4 -129 83 0
86 35 116 110 97 40 -10 54 -10 65 -1 21 17 19 25 -12 46 -35 22 -89 32 -130
23z"/>
<path d="M6440 806 c0 -2 13 -35 29 -72 16 -38 42 -101 59 -140 l30 -71 -29
-69 c-17 -40 -25 -72 -20 -77 11 -11 66 0 79 16 11 14 172 396 172 409 0 13
-54 9 -76 -6 -11 -8 -33 -46 -48 -85 -15 -39 -31 -69 -36 -66 -4 3 -20 35 -35
72 -14 38 -34 74 -43 81 -14 11 -82 18 -82 8z"/>
<path d="M7303 798 c3 -7 33 -82 68 -165 62 -151 63 -153 94 -153 44 0 70 32
93 115 l19 70 28 -92 c27 -88 30 -93 56 -93 43 0 58 10 78 49 23 43 111 262
111 273 0 4 -15 8 -34 8 -44 0 -62 -23 -101 -128 -16 -45 -32 -82 -35 -82 -3
0 -14 32 -24 71 -37 146 -34 139 -66 139 -45 0 -65 -28 -90 -124 -13 -48 -26
-83 -30 -79 -4 4 -22 48 -40 96 -18 48 -41 92 -51 97 -27 15 -82 13 -76 -2z"/>
<path d="M7905 785 c-24 -23 -25 -30 -25 -140 0 -110 1 -117 25 -140 29 -30
68 -32 95 -5 28 28 26 57 -2 56 -22 -1 -23 2 -26 108 -2 66 1 113 8 121 8 9 6
14 -6 19 -28 11 -44 6 -69 -19z"/>
<path d="M370 789 c0 -5 5 -7 10 -4 6 3 10 8 10 11 0 2 -4 4 -10 4 -5 0 -10
-5 -10 -11z"/>
<path d="M2770 789 c0 -5 5 -7 10 -4 6 3 10 8 10 11 0 2 -4 4 -10 4 -5 0 -10
-5 -10 -11z"/>
<path d="M3570 789 c0 -5 5 -7 10 -4 6 3 10 8 10 11 0 2 -4 4 -10 4 -5 0 -10
-5 -10 -11z"/>
<path d="M4370 789 c0 -5 5 -7 10 -4 6 3 10 8 10 11 0 2 -4 4 -10 4 -5 0 -10
-5 -10 -11z"/>
<path d="M5170 789 c0 -5 5 -7 10 -4 6 3 10 8 10 11 0 2 -4 4 -10 4 -5 0 -10
-5 -10 -11z"/>
<path d="M5970 789 c0 -5 5 -7 10 -4 6 3 10 8 10 11 0 2 -4 4 -10 4 -5 0 -10
-5 -10 -11z"/>
<path d="M6770 789 c0 -5 5 -7 10 -4 6 3 10 8 10 11 0 2 -4 4 -10 4 -5 0 -10
-5 -10 -11z"/>
<path d="M9170 789 c0 -5 5 -7 10 -4 6 3 10 8 10 11 0 2 -4 4 -10 4 -5 0 -10
-5 -10 -11z"/>
</g>
</svg>
