<?xml version="1.0" encoding="utf-8"?>
<!-- Generator: Adobe Illustrator 22.0.0, SVG Export Plug-In . SVG Version: 6.00 Build 0)  -->
<svg version="1.1" id="Layer_1" xmlns="http://www.w3.org/2000/svg" xmlns:xlink="http://www.w3.org/1999/xlink" x="0px" y="0px"
	 width="132px" height="45px" viewBox="0 0 132 45" style="enable-background:new 0 0 132 45;" xml:space="preserve">
<style type="text/css">
	.st0{fill:#2B2B6B;}
</style>
<path class="st0" d="M4.8,15.3v7.8H0.3V0h7.8c2.2-0.1,4.5,0.6,6.1,2.2c1.5,1.4,2.3,3.4,2.2,5.5c0.1,2.1-0.7,4-2.2,5.5
	c-1.6,1.5-3.9,2.4-6.1,2.2H4.8z M7.4,4H4.8v7.4h2.6c1.1,0.1,2.2-0.3,3.2-1c0.8-0.7,1.2-1.7,1.2-2.8c0.1-1.1-0.4-2.1-1.2-2.7
	C9.6,4.2,8.5,3.9,7.4,4 M30.8,21.3c-3.2,3-8.3,3-11.5,0c-1.6-1.5-2.4-3.6-2.3-5.7c-0.1-2.1,0.8-4.2,2.3-5.7c3.2-3,8.3-3,11.5,0
	c1.6,1.5,2.4,3.6,2.3,5.7C33.2,17.7,32.4,19.8,30.8,21.3 M25.1,11.5c-1,0-2,0.4-2.7,1.2c-1.4,1.7-1.4,4.2,0,5.9
	c1.4,1.5,3.8,1.6,5.3,0.2c0.1-0.1,0.1-0.1,0.2-0.2c1.4-1.7,1.4-4.2,0-5.9C27.1,11.9,26.1,11.4,25.1,11.5 M44.9,7.9v4.3h-1.8
	c-0.9-0.1-1.8,0.2-2.4,0.9c-0.6,0.8-0.8,1.8-0.8,2.8v7.3h-4.3V8h4.2v2.4c0.3-0.8,0.8-1.5,1.5-1.9C42,8,42.9,7.8,43.7,7.8
	C44.1,7.8,44.5,7.9,44.9,7.9 M48.4,2.6h4.3v5.8H56V12h-3.3v6.9c0,0.7,0.5,1.1,1.4,1.1l2-0.1v3.7c-1.4,0.1-2.5,0.2-3.3,0.2
	c-0.5,0-1.1,0-1.6-0.1c-0.5-0.1-0.9-0.2-1.4-0.4c-0.5-0.2-0.8-0.6-1-1c-0.3-0.6-0.4-1.2-0.4-1.8v-8.3h-2.4V8.4h2.4L48.4,2.6
	L48.4,2.6z M71.8,21.7c-3.2,3-8.3,3-11.5,0C58.8,20.2,58,18.1,58,16c-0.1-2.1,0.8-4.2,2.3-5.7c3.2-3,8.3-3,11.5,0
	c1.6,1.5,2.4,3.6,2.3,5.7C74.2,18.1,73.4,20.2,71.8,21.7 M66.1,11.9c-1,0-2,0.4-2.7,1.2c-1.4,1.7-1.4,4.2,0,5.9
	c1.4,1.5,3.8,1.6,5.3,0.2c0.1-0.1,0.1-0.1,0.2-0.2c1.4-1.7,1.4-4.2,0-5.9C68.1,12.3,67.1,11.8,66.1,11.9 M77.5,23.1
	c-1.1-1.1-1.1-2.9,0-4c1.1-1.1,2.9-1.1,4,0c1.1,1.1,1.1,2.9,0,4c-0.5,0.5-1.3,0.8-2,0.8C78.7,24,78,23.7,77.5,23.1 M0,29.1h11.2v1.3
	H6.3v14.4H4.9V30.3H0V29.1z M20,40.2h-8.5c0.1,1,0.4,1.9,1.1,2.6c0.6,0.7,1.6,1,2.5,1c1.3,0.1,2.5-0.6,3.1-1.7h1.6
	c-0.4,0.9-1.1,1.6-1.9,2.1C17,44.7,16,45,15,45c-1.3,0-2.6-0.5-3.6-1.5c-1.9-2.1-1.9-5.3,0-7.5c1.9-2,5.1-2,7,0c0,0,0,0,0,0
	C19.5,37.2,20.1,38.7,20,40.2L20,40.2L20,40.2z M15,35.8c-0.9,0-1.7,0.3-2.4,0.9c-0.6,0.6-1.1,1.5-1.1,2.4h7
	c-0.1-0.9-0.4-1.7-1.1-2.3C16.7,36.1,15.9,35.8,15,35.8 M24,36.9c-1.4,1.7-1.4,4.1,0,5.7c0.7,0.8,1.7,1.2,2.7,1.1
	c0.7,0,1.4-0.2,1.9-0.5c0.6-0.4,1-0.9,1.3-1.5l1.2,0.7c-0.4,0.8-1,1.4-1.8,1.8c-0.8,0.5-1.7,0.7-2.6,0.7c-1.4,0-2.7-0.5-3.6-1.5
	c-2-2.1-2-5.4,0-7.4c0.9-1,2.3-1.5,3.6-1.5c0.9,0,1.8,0.2,2.6,0.7c0.8,0.4,1.4,1.1,1.8,1.8l-1.2,0.7c-0.6-1.2-1.9-2-3.2-2
	C25.6,35.8,24.7,36.2,24,36.9 M40.5,44.7v-6.5c0-0.7-0.2-1.3-0.7-1.8c-0.5-0.4-1.1-0.7-1.8-0.6c-1.3,0.1-2.5,0.7-3.3,1.7v7.2h-1.4
	V29.1h1.3v7.2c0.8-1.1,2.2-1.7,3.5-1.7c1-0.1,1.9,0.3,2.6,1c0.7,0.7,1,1.7,0.9,2.6v6.6L40.5,44.7L40.5,44.7z M55.9,36.1v-7.1h1.4
	v15.7h-1.4v-7.4h-8v7.4h-1.4V29.1H48v7.1L55.9,36.1L55.9,36.1z M68.1,43.9c-1.8,1.4-4.4,1.4-6.2,0c-0.7-0.7-1.1-1.7-1.1-2.7v-6.4
	h1.4v6.2c0,0.8,0.2,1.5,0.8,2c1.2,0.9,2.9,0.9,4.1,0c0.5-0.5,0.8-1.2,0.8-2v-6.2h1.4v6.4C69.2,42.2,68.8,43.2,68.1,43.9 M77.4,45
	c-0.8,0-1.6-0.2-2.3-0.6c-0.6-0.4-1.2-0.9-1.5-1.5v1.9h-1.4V29.1h1.4v7.7c0.3-0.7,0.9-1.2,1.5-1.6c0.7-0.4,1.5-0.6,2.3-0.6
	c1.3,0,2.6,0.5,3.5,1.5c1,1,1.5,2.4,1.4,3.7c0,1.4-0.5,2.7-1.4,3.7C80,44.5,78.7,45,77.4,45 M79.9,42.7c1.4-1.7,1.4-4.1,0-5.7
	c-1.4-1.5-3.7-1.5-5.2-0.1c0,0-0.1,0.1-0.1,0.1c-1.4,1.6-1.4,4.1,0,5.7c1.4,1.5,3.7,1.5,5.2,0.1C79.9,42.8,79.9,42.7,79.9,42.7
	 M106.3,19.8c0.3-0.6,0.3-1.3,0-1.9c-0.4-1-1.4-1.6-2.4-1.6l-3.2-8l18.8-7.6l3.6,9l-4.4,1.8c-0.3-0.3-0.6-0.5-1-0.7
	c-0.6-0.3-1.3-0.3-1.9,0c-0.6,0.2-1.1,0.7-1.4,1.4c-0.3,0.6-0.3,1.3,0,1.9c0.2,0.6,0.7,1.1,1.3,1.4c0.6,0.3,1.3,0.3,2,0
	c0.6-0.2,1.1-0.7,1.4-1.4c0.2-0.4,0.2-0.8,0.2-1.3l4.3-1.8l8.2,20.6l-5.9,2.4l-1.7-4.2c0.8-0.7,1.1-1.9,0.8-2.9
	c-0.2-0.6-0.7-1.1-1.4-1.4c-0.6-0.3-1.3-0.3-1.9,0c-0.6,0.2-1.1,0.7-1.4,1.4c-0.3,0.6-0.3,1.3,0,2c0.2,0.6,0.7,1.1,1.3,1.4
	c0.4,0.2,0.8,0.2,1.2,0.2l1.7,4.2l-24.1,9.7l-3.7-9.1l13.9-5.6c0.2-0.1,0.3-0.2,0.4-0.4l1.4-3.2c0.4,0,0.8,0,1.2-0.2
	c1.3-0.5,1.9-2,1.4-3.3c-0.2-0.6-0.7-1.1-1.4-1.4c-0.6-0.3-1.3-0.3-1.9,0c-0.6,0.2-1.1,0.7-1.4,1.3c-0.3,0.6-0.3,1.3,0,2
	c0.1,0.4,0.4,0.7,0.7,1l-1.2,2.9l-13.6,5.5l-4.2-10.6l4.7-1.9l0.4,0.9c-0.3,0.2-0.6,0.6-0.7,1c-0.3,0.6-0.3,1.3,0,2
	c0.2,0.6,0.7,1.1,1.3,1.4c0.6,0.3,1.3,0.3,2,0c1.3-0.5,1.9-2,1.4-3.3c-0.2-0.6-0.7-1.1-1.4-1.4c-0.4-0.2-0.8-0.2-1.2-0.2l-0.7-1.6
	c-0.1-0.2-0.2-0.3-0.4-0.4c-0.2-0.1-0.4-0.1-0.6,0l-5.4,2.2l-3.4-8.4l11.2-4.5l3.2,7.9c-1,0.7-1.4,1.9-0.9,3
	c0.2,0.6,0.7,1.1,1.3,1.4c0.6,0.3,1.3,0.3,2,0C105.6,21,106.1,20.5,106.3,19.8"/>
</svg>
