<?xml version="1.0" encoding="utf-8"?>
<!-- Generator: Adobe Illustrator 21.0.1, SVG Export Plug-In . SVG Version: 6.00 Build 0)  -->
<svg version="1.1" id="Layer_1" xmlns="http://www.w3.org/2000/svg" xmlns:xlink="http://www.w3.org/1999/xlink" x="0px" y="0px"
	 viewBox="0 0 150 26.4" style="enable-background:new 0 0 150 26.4;" xml:space="preserve">
<style type="text/css">
	.st0{fill:#333232;}
	.st1{fill:#E44127;}
	.st2{fill:#838384;}
</style>
<g>
	<path class="st0" d="M25.4,3.4l-0.3,3.4c-1.9-0.1-4.6-0.1-7-0.1c-2.4,0-3.2,0.1-3.2,2c0,1.6,0.6,2,2.3,2.5l4.3,1.5
		c3.6,1.3,4.7,3.3,4.7,6.6c0,5.1-2.2,6.5-8.3,6.5c-1.4,0-4.3-0.1-7.7-0.8l0.3-3.6c4.2,0.1,6,0.2,7.4,0.2c2.6,0,3.3-0.4,3.3-2.2
		c0-1.6-0.6-2-2.1-2.5l-4.5-1.6c-3.4-1.2-4.6-3.2-4.6-6.6c0-5.1,2.4-6.2,8.2-6.2C20.2,2.5,22.9,2.7,25.4,3.4"/>
	<path class="st0" d="M54.6,24c-0.2,0.8-0.9,1.4-1.8,1.4h-4.7c-0.9,0-1.6-0.6-1.8-1.4L43.9,9.3c-0.2-0.9-0.3-1.9-0.4-2.8h-0.6
		c-0.1,0.9-0.2,1.9-0.4,2.9L40.1,24c-0.1,0.8-0.9,1.4-1.8,1.4h-4.7c-0.9,0-1.6-0.6-1.8-1.4l-3.5-21h5.1l2.2,15.6
		c0.1,1,0.2,2,0.3,3.2h0.7c0.1-1.1,0.3-2.2,0.5-3.2l2.4-14c0.1-0.9,0.8-1.5,1.8-1.5h4.3c0.9,0,1.6,0.6,1.7,1.5l2.4,14.1
		c0.2,1,0.4,2.2,0.5,3.2h0.7c0.1-1,0.2-2.2,0.3-3.2l2.2-15.6h5L54.6,24z"/>
	<path class="st0" d="M64.6,2.3c0.9,0,1.4,0.5,1.4,1.4v1.8c0,0.9-0.5,1.4-1.4,1.4h-2.1c-0.9,0-1.4-0.5-1.4-1.4V3.7
		c0-0.9,0.5-1.4,1.4-1.4H64.6z M61.1,9.4h4.8v16h-4.8V9.4z"/>
	<path class="st0" d="M76.2,20.1c0,1.2,0.5,1.6,1.8,1.6h2l0.5,3.3c-1.2,0.4-3.4,0.6-4.5,0.6c-2.9,0-4.6-1.7-4.6-4.6v-8.6h-2.8V9.5
		l2.8-0.2V4.9h4.8v4.5h4.4v3.2h-4.4V20.1z"/>
	<path class="st0" d="M99,3.3L98.6,7c-2.1-0.1-3.5-0.2-6.3-0.2C89,6.8,88,8.5,88,14.2c0,5.7,1,7.3,4.2,7.3c3,0,4.8,0,6.8-0.3
		l0.4,3.7c-2.1,0.7-4,0.9-7.2,0.9c-6.9,0-9.4-3.1-9.4-11.6s2.5-11.6,9.4-11.6C95.4,2.6,96.9,2.8,99,3.3"/>
	<polygon class="st0" points="120.4,25.4 115.5,25.4 115.5,15.4 107.6,15.4 107.6,25.4 102.6,25.4 102.6,3 107.6,3 107.6,11.5 
		115.5,11.5 115.5,3 120.4,3 	"/>
	<path class="st1" d="M3.5,20.8c0.9,0,1.4,0.5,1.4,1.4V24c0,0.9-0.5,1.4-1.4,1.4H1.4C0.5,25.4,0,24.9,0,24v-1.8
		c0-0.9,0.5-1.4,1.4-1.4H3.5z"/>
	<path class="st2" d="M149,8.5c0.7,0,1,0.3,1,1v1.2c0,0.7-0.3,1-1,1h-1.5c-0.7,0-1-0.3-1-1V9.5c0-0.6,0.3-1,1-1H149z"/>
	<path class="st1" d="M130.9,0c-1.2,2.1-2.1,4.1-2.7,6.2c-0.6,2.1-0.9,4.1-0.9,6.2c0,2.1,0.3,4.1,0.9,6.2c0.6,2.1,1.5,4.1,2.7,6.2
		h-2.2c-1.4-2.2-2.4-4.3-3.1-6.3c-0.7-2-1-4.1-1-6.1c0-2,0.3-4.1,1-6.1c0.7-2.1,1.7-4.1,3.1-6.3L130.9,0L130.9,0z"/>
	<path class="st1" d="M136.9,0h2.2c1.4,2.1,2.4,4.2,3.1,6.3c0.7,2.1,1,4.1,1,6.1c0,2-0.3,4.1-1,6.1c-0.7,2.1-1.7,4.1-3.1,6.3h-2.2
		c1.2-2.1,2.1-4.2,2.7-6.2c0.6-2.1,0.9-4.1,0.9-6.2c0-2.1-0.3-4.1-0.9-6.2C139,4.1,138.1,2.1,136.9,0"/>
	<polygon class="st2" points="145.7,26.4 146.9,21.2 146.9,17.6 150,17.6 150,20.9 147.5,26.4 	"/>
</g>
</svg>
